<?xml version="1.0" standalone="no"?><!DOCTYPE svg PUBLIC "-//W3C//DTD SVG 1.1//EN" "http://www.w3.org/Graphics/SVG/1.1/DTD/svg11.dtd"><svg t="1596525837309" class="icon" viewBox="0 0 1024 1024" version="1.1" xmlns="http://www.w3.org/2000/svg" p-id="1199" xmlns:xlink="http://www.w3.org/1999/xlink" width="200" height="200"><defs><style type="text/css"></style></defs><path d="M471.04 440.32h409.6l10.24 389.12-30.72 92.16-61.44 40.96H307.2l-81.92-40.96-20.48-112.64 10.24-552.96h102.4l10.24 522.24 10.24 92.16h112.64V768l20.48 1.7408V440.32z" fill="#DAE8F1" p-id="1200"></path><path d="M655.36 604.16h51.2v61.44h61.44v51.2l-61.44 10.24v51.2h-51.2v-61.44h-61.44v-51.2h51.2v-61.44h10.24z" fill="#FFFFFF" p-id="1201"></path><path d="M768 969.4208v-30.72a102.4 102.4 0 0 0 102.4-102.4v-394.24H472.064a1.1264 1.1264 0 0 0 1.1264-1.1264h-30.72a29.5936 29.5936 0 0 1 29.5936-29.5936h399.9744A29.5936 29.5936 0 0 1 901.12 440.9344v395.3664a133.12 133.12 0 0 1-133.12 133.12z" fill="#686C79" p-id="1202"></path><path d="M340.0704 969.4208v-30.72a102.4 102.4 0 0 0 102.4-102.4V440.9344h30.72v395.3664a133.12 133.12 0 0 1-133.12 133.12zM324.7104 969.4208a133.12 133.12 0 0 1-133.12-133.12V265.6256h30.72v570.6752a102.4 102.4 0 0 0 102.4 102.4z" fill="#686C79" p-id="1203"></path><path d="M321.3312 938.7008h452.3008v30.72H321.3312zM808.96 425.8816h-30.72V266.24a5.12 5.12 0 0 0-5.12-5.12h-31.744v-30.72h31.744A35.84 35.84 0 0 1 808.96 266.24zM222.4128 266.24h-30.72a35.84 35.84 0 0 1 35.84-35.84H327.68v30.72h-100.1472a5.12 5.12 0 0 0-5.12 5.12z" fill="#686C79" p-id="1204"></path><path d="M458.24 877.2608H346.9312a35.84 35.84 0 0 1-35.84-35.84V192.1024a35.84 35.84 0 0 1 35.84-35.84H719.872a35.84 35.84 0 0 1 35.84 35.84v234.5984h-30.72V192.1024a5.12 5.12 0 0 0-5.12-5.12H346.9312a5.12 5.12 0 0 0-5.12 5.12v649.3184a5.12 5.12 0 0 0 5.12 5.12h111.3088z" fill="#686C79" p-id="1205"></path><path d="M731.0336 334.0288h-117.76a15.36 15.36 0 0 1 0-30.72h117.76a15.36 15.36 0 1 1 0 30.72z" fill="#686C79" p-id="1206"></path><path d="M583.0656 303.3088m0 15.36l0 0q0 15.36-15.36 15.36l0 0q-15.36 0-15.36-15.36l0 0q0-15.36 15.36-15.36l0 0q15.36 0 15.36 15.36Z" fill="#686C79" p-id="1207"></path><path d="M701.0304 789.7088h-37.376a26.0096 26.0096 0 0 1-26.0096-26.112v-50.176a15.36 15.36 0 0 1 15.36-15.36 15.36 15.36 0 0 1 15.36 15.36v45.568H696.32v-45.8752a15.36 15.36 0 0 1 15.36-15.36 15.36 15.36 0 0 1 15.36 15.36v50.5856a26.0096 26.0096 0 0 1-26.0096 26.0096zM653.0048 669.3888a15.36 15.36 0 0 1-15.36-15.36v-50.3808a26.112 26.112 0 0 1 26.0096-26.0096h37.376A26.112 26.112 0 0 1 727.04 603.648v48.9472a15.36 15.36 0 1 1-30.72 0V608.256h-27.9552v45.7728a15.36 15.36 0 0 1-15.36 15.36z" fill="#686C79" p-id="1208"></path><path d="M762.368 728.3712h-51.2a15.36 15.36 0 0 1 0-30.72H757.76V669.696h-46.08a15.36 15.36 0 1 1 0-30.72h51.2a26.112 26.112 0 0 1 25.6 26.0096v37.376a26.112 26.112 0 0 1-26.112 26.0096z m0-58.6752zM653.2096 728.3712h-51.2a26.112 26.112 0 0 1-26.0096-26.0096v-37.376a26.112 26.112 0 0 1 26.0096-26.0096h50.4832a15.36 15.36 0 0 1 0 30.72h-45.568v27.9552h46.2848a15.36 15.36 0 0 1 0 30.72zM500.5312 163.84h-30.72a33.28 33.28 0 1 0-66.56 0h-30.72a64 64 0 1 1 128 0zM450.56 285.696a49.8688 49.8688 0 0 1-49.9712-50.176h30.72a19.0464 19.0464 0 1 0 38.0928 0v-55.9104h30.72V235.52A49.8688 49.8688 0 0 1 450.56 285.696z" fill="#686C79" p-id="1209"></path></svg>